<svg width="25" height="24" viewBox="0 0 25 24" fill="none" xmlns="http://www.w3.org/2000/svg">
<g clip-path="url(#clip0_3180_6189)">
<path d="M17.9 1C15.75 1.00332 13.7359 2.05195 12.5 3.81113C11.2641 2.05195 9.25 1.00332 7.1 1C3.58398 1 0.5 4.27129 0.5 8C0.5 11.634 2.55195 15.3768 6.43438 18.824C8.2332 20.4182 10.2064 21.8039 12.3164 22.9553C12.4316 23.0146 12.5684 23.0146 12.6836 22.9553C14.7928 21.8039 16.7654 20.418 18.5637 18.824C22.448 15.3768 24.5 11.634 24.5 8C24.5 4.27129 21.416 1 17.9 1V1ZM12.5 22.1451C11.0309 21.3344 1.3 15.6703 1.3 8C1.3 4.69727 4.00996 1.8 7.1 1.8C9.19336 1.80371 11.123 2.93301 12.1516 4.75645C12.2285 4.87402 12.3596 4.94473 12.5 4.94473C12.6404 4.94473 12.7715 4.87402 12.8484 4.75645C13.877 2.93301 15.8066 1.80371 17.9 1.8C20.99 1.8 23.7 4.69727 23.7 8C23.7 15.6703 13.9691 21.3344 12.5 22.1451Z" fill="#F42C3C"/>
</g>
<defs>
<clipPath id="clip0_3180_6189">
<rect width="24" height="24" fill="white" transform="translate(0.5)"/>
</clipPath>
</defs>
</svg>
