<svg width="25" height="24" viewBox="0 0 25 24" fill="none" xmlns="http://www.w3.org/2000/svg">
<path d="M21.4459 8.28937C21.4021 7.33136 21.2499 6.67712 21.0275 6.10474C20.8015 5.5042 20.4472 4.96024 19.9894 4.51062C19.5399 4.05276 18.9958 3.69832 18.3953 3.47227C17.8227 3.24994 17.1686 3.09792 16.2106 3.05438C15.2508 3.01044 14.9442 3 12.5 3C10.0558 3 9.74916 3.01044 8.78937 3.05411C7.83136 3.09792 7.17726 3.25008 6.60474 3.47255C6.0042 3.69846 5.46024 4.05276 5.01062 4.51062C4.55276 4.9601 4.19832 5.50406 3.97227 6.1046C3.74994 6.67712 3.59792 7.33136 3.55438 8.28923C3.51044 9.24916 3.5 9.55568 3.5 11.9999C3.5 14.4442 3.51044 14.7508 3.55438 15.7106C3.59805 16.6685 3.75021 17.3227 3.97269 17.8953C4.19859 18.4957 4.5529 19.0398 5.01076 19.4892C5.46024 19.9471 6.00433 20.3014 6.60487 20.5273C7.17726 20.7499 7.8315 20.9019 8.78951 20.9458C9.74944 20.9896 10.056 20.9999 12.5001 20.9999C14.9443 20.9999 15.251 20.9896 16.2108 20.9458C17.1688 20.9019 17.8229 20.7499 18.3954 20.5273C19.6043 20.0598 20.56 19.1042 21.0275 17.8953C21.2501 17.3227 21.4021 16.6685 21.4459 15.7106C21.4896 14.7507 21.5 14.4442 21.5 12C21.5 9.55568 21.4896 9.24916 21.4459 8.28937ZM19.8258 15.6369C19.7859 16.5144 19.6392 16.991 19.516 17.308C19.2132 18.093 18.5929 18.7133 17.8079 19.0161C17.4908 19.1393 17.0143 19.286 16.1367 19.326C15.1879 19.3694 14.9033 19.3784 12.5 19.3784C10.0966 19.3784 9.81206 19.3694 8.86311 19.326C7.98572 19.286 7.50919 19.1393 7.19196 19.0161C6.80112 18.8718 6.44749 18.6418 6.15718 18.3428C5.85822 18.0525 5.62819 17.699 5.48386 17.308C5.36067 16.991 5.214 16.5144 5.17404 15.6369C5.13078 14.6879 5.12158 14.4033 5.12158 12.0001C5.12158 9.59688 5.13078 9.31233 5.17404 8.36325C5.21414 7.48572 5.36067 7.00919 5.48386 6.69209C5.62819 6.30112 5.85835 5.94749 6.15718 5.65718C6.44749 5.35822 6.80112 5.12819 7.19209 4.98399C7.50919 4.86067 7.98572 4.71414 8.86325 4.67404C9.81219 4.63078 10.0969 4.62158 12.5 4.62158H12.4999C14.903 4.62158 15.1877 4.63078 16.1367 4.67418C17.0143 4.71414 17.4907 4.86081 17.8079 4.98399C18.1987 5.12833 18.5524 5.35835 18.8427 5.65718C19.1416 5.94749 19.3717 6.30112 19.5159 6.69209C19.6392 7.00919 19.7859 7.48572 19.8258 8.36325C19.8691 9.31219 19.8783 9.59688 19.8783 12C19.8783 14.4033 19.8692 14.6878 19.8258 15.6369Z" fill="white"/>
<path d="M12.4995 7.37793C9.94707 7.37793 7.87793 9.4472 7.87793 11.9996C7.87793 14.552 9.94707 16.6211 12.4995 16.6211C15.052 16.6211 17.1211 14.552 17.1211 11.9996C17.1211 9.4472 15.052 7.37793 12.4995 7.37793ZM12.4995 14.9996C10.8427 14.9994 9.49951 13.6563 9.49965 11.9995C9.49965 10.3427 10.8427 8.99951 12.4996 8.99951C14.1565 8.99965 15.4996 10.3427 15.4996 11.9995C15.4996 13.6563 14.1563 14.9996 12.4995 14.9996Z" fill="white"/>
<path d="M18.3827 7.19533C18.3827 7.79175 17.8992 8.27528 17.3027 8.27528C16.7062 8.27528 16.2227 7.79175 16.2227 7.19533C16.2227 6.59877 16.7062 6.11523 17.3027 6.11523C17.8992 6.11523 18.3827 6.59877 18.3827 7.19533Z" fill="#FDFDFD"/>
</svg>
