<svg width="24" height="21" viewBox="0 0 24 21" fill="none" xmlns="http://www.w3.org/2000/svg">
<path d="M17.3877 7.2231C17.3753 7.20408 17.3599 7.18727 17.342 7.17335C16.7333 6.48983 15.9869 5.94281 15.1517 5.56823C14.3164 5.19365 13.4114 5 12.4959 5C11.5805 5 10.6754 5.19365 9.84022 5.56823C9.005 5.94281 8.25854 6.48983 7.64989 7.17335C7.63287 7.18682 7.61813 7.20293 7.60621 7.22107V7.22614C6.78453 8.16576 6.25093 9.32205 6.06922 10.5568C5.88751 11.7915 6.06536 13.0524 6.58153 14.1888C7.0977 15.3251 7.93033 16.2888 8.97989 16.9647C10.0294 17.6406 11.2515 18 12.5 18C13.7485 18 14.9706 17.6406 16.0201 16.9647C17.0697 16.2888 17.9023 15.3251 18.4185 14.1888C18.9346 13.0524 19.1125 11.7915 18.9308 10.5568C18.7491 9.32205 18.2155 8.16576 17.3938 7.22614L17.3877 7.2231ZM17.1846 15.3866C16.7231 15.1174 16.2333 14.8998 15.7241 14.7379C16.0399 13.7565 16.2066 12.7332 16.2187 11.7023H18.5861C18.5428 13.0526 18.0495 14.3496 17.1846 15.3877V15.3866ZM6.40879 11.7023H8.77621C8.78822 12.7336 8.95495 13.7571 9.27082 14.7389C8.76162 14.9008 8.27184 15.1184 7.81035 15.3877C6.94542 14.3496 6.45213 13.0526 6.40879 11.7023ZM7.82559 7.59569C8.28479 7.8625 8.7718 8.07834 9.27793 8.23935C8.95745 9.2272 8.7883 10.2578 8.77621 11.2962H6.40879C6.45306 9.9389 6.95199 8.63574 7.82559 7.59569ZM12.7006 8.72159C13.5928 8.70895 14.4799 8.58481 15.3412 8.35204C15.6452 9.30435 15.8054 10.2967 15.8165 11.2962H12.7006V8.72159ZM12.7006 8.31549V5.42003C13.7304 5.53475 14.6303 6.51547 15.199 7.9693C14.3835 8.18653 13.5444 8.3028 12.7006 8.31549ZM12.2943 8.31549C11.4505 8.30281 10.6114 8.18654 9.7959 7.9693C10.3646 6.51547 11.2645 5.53475 12.2943 5.42003V8.31549ZM12.2943 8.72159V11.2962H9.18246C9.19224 10.2969 9.35107 9.30456 9.65371 8.35204C10.5151 8.5848 11.4022 8.70894 12.2943 8.72159ZM9.18246 11.7023H12.2943V14.2546C11.4021 14.2679 10.515 14.3927 9.65371 14.6262C9.35329 13.6801 9.19449 12.6949 9.18246 11.7023ZM12.2943 14.6607V17.5785C11.2604 17.4628 10.3525 16.474 9.78777 15.009C10.6058 14.7903 11.4477 14.6734 12.2943 14.6607ZM12.7006 14.6607C13.5472 14.6734 14.3891 14.7903 15.2071 15.009C14.6425 16.474 13.7345 17.4628 12.7006 17.5785V14.6607ZM12.7006 14.2546V11.7023H15.8125C15.8003 12.6945 15.6415 13.6795 15.3412 14.6252C14.4799 14.3921 13.5928 14.2676 12.7006 14.2546ZM16.2187 11.2962C16.2066 10.2578 16.0375 9.2272 15.717 8.23935C16.2231 8.07834 16.7101 7.8625 17.1693 7.59569C18.0429 8.63574 18.5419 9.9389 18.5861 11.2962H16.2187ZM16.8941 7.28807C16.4767 7.52213 16.0363 7.71265 15.5799 7.85661C15.2051 6.89416 14.6851 6.11852 14.0757 5.61597C15.1503 5.90561 16.125 6.48389 16.8941 7.28807ZM10.9192 5.61597C10.3098 6.11547 9.79082 6.89314 9.41606 7.85661C8.95964 7.71265 8.51925 7.52213 8.10184 7.28807C8.87063 6.48405 9.84497 5.90578 10.9192 5.61597ZM8.0866 15.6963C8.50562 15.4596 8.9481 15.267 9.40692 15.1217C9.7827 16.0943 10.3047 16.8801 10.9182 17.3826C9.83727 17.0912 8.85758 16.5077 8.0866 15.6963ZM14.0788 17.3826C14.6882 16.875 15.2143 16.0943 15.59 15.1217C16.0489 15.267 16.4913 15.4596 16.9103 15.6963C16.1385 16.5082 15.1577 17.0917 14.0757 17.3826H14.0788Z" fill="#EAEAEA"/>
</svg>
