<svg width="25" height="24" viewBox="0 0 25 24" fill="none" xmlns="http://www.w3.org/2000/svg">
<path d="M21.4935 22V21.9992H21.4983V15.031C21.4983 11.6221 20.7644 8.99609 16.7792 8.99609C14.8633 8.99609 13.5777 10.0474 13.0528 11.0441H12.9974V9.31434H9.21875V21.9992H13.1533V15.7181C13.1533 14.0643 13.4668 12.4652 15.5149 12.4652C17.5328 12.4652 17.5629 14.3525 17.5629 15.8242V22H21.4935Z" fill="white"/>
<path d="M2.81348 9.31543H6.75281V22.0003H2.81348V9.31543Z" fill="white"/>
<path d="M4.78158 3C3.52204 3 2.5 4.02204 2.5 5.28158C2.5 6.54113 3.52204 7.58454 4.78158 7.58454C6.04113 7.58454 7.06317 6.54113 7.06317 5.28158C7.06238 4.02204 6.04033 3 4.78158 3V3Z" fill="white"/>
</svg>
