<svg width="13" height="18" viewBox="0 0 13 18" fill="none" xmlns="http://www.w3.org/2000/svg">
<path d="M6.3 3C4.7536 3 3.5 4.2536 3.5 5.8C3.5 7.3464 4.7536 8.6 6.3 8.6C7.84565 8.59825 9.09825 7.34565 9.1 5.8C9.1 4.2536 7.8464 3 6.3 3ZM6.3 7.8C5.19545 7.8 4.3 6.90455 4.3 5.8C4.3 4.69545 5.19545 3.8 6.3 3.8C7.404 3.8013 8.2987 4.696 8.3 5.8C8.3 6.90455 7.40455 7.8 6.3 7.8Z" fill="#000046"/>
<path d="M6.5 0C3.18627 0 0.5 2.68628 0.5 6C0.5 9.2022 6.0155 17.514 6.2504 17.8665C6.30605 17.9499 6.39972 18 6.5 18C6.60027 18 6.69395 17.9499 6.7496 17.8665C6.9845 17.514 12.5 9.2022 12.5 6C12.5 2.68628 9.81372 0 6.5 0ZM6.5 17.1519C5.4065 15.4653 1.1 8.652 1.1 6C1.10349 3.01909 3.51909 0.603488 6.5 0.6C9.48091 0.603488 11.8965 3.01909 11.9 6C11.9 8.6514 7.5935 15.4653 6.5 17.1519Z" fill="#000046"/>
</svg>
