<svg width="25" height="24" viewBox="0 0 25 24" fill="none" xmlns="http://www.w3.org/2000/svg">
<path d="M11.1875 5.41406C11.1875 5.76216 11.3258 6.096 11.5719 6.34214C11.8181 6.58828 12.1519 6.72656 12.5 6.72656C12.8481 6.72656 13.1819 6.58828 13.4281 6.34214C13.6742 6.096 13.8125 5.76216 13.8125 5.41406C13.8125 5.06597 13.6742 4.73213 13.4281 4.48598C13.1819 4.23984 12.8481 4.10156 12.5 4.10156C12.1519 4.10156 11.8181 4.23984 11.5719 4.48598C11.3258 4.73213 11.1875 5.06597 11.1875 5.41406ZM11.1875 11.9766C11.1875 12.3247 11.3258 12.6585 11.5719 12.9046C11.8181 13.1508 12.1519 13.2891 12.5 13.2891C12.8481 13.2891 13.1819 13.1508 13.4281 12.9046C13.6742 12.6585 13.8125 12.3247 13.8125 11.9766C13.8125 11.6285 13.6742 11.2946 13.4281 11.0485C13.1819 10.8023 12.8481 10.6641 12.5 10.6641C12.1519 10.6641 11.8181 10.8023 11.5719 11.0485C11.3258 11.2946 11.1875 11.6285 11.1875 11.9766ZM11.1875 18.5391C11.1875 18.8872 11.3258 19.221 11.5719 19.4671C11.8181 19.7133 12.1519 19.8516 12.5 19.8516C12.8481 19.8516 13.1819 19.7133 13.4281 19.4671C13.6742 19.221 13.8125 18.8872 13.8125 18.5391C13.8125 18.191 13.6742 17.8571 13.4281 17.611C13.1819 17.3648 12.8481 17.2266 12.5 17.2266C12.1519 17.2266 11.8181 17.3648 11.5719 17.611C11.3258 17.8571 11.1875 18.191 11.1875 18.5391Z" fill="#0096C7"/>
</svg>
