<svg width="25" height="24" viewBox="0 0 25 24" fill="none" xmlns="http://www.w3.org/2000/svg">
<path d="M21.5 5.89415C20.7934 6.21538 20.0406 6.42831 19.2556 6.53169C20.0631 6.032 20.6794 5.24677 20.9692 4.30031C20.2163 4.76554 19.3851 5.09415 18.4992 5.27754C17.7843 4.48862 16.7654 4 15.6539 4C13.4974 4 11.7613 5.81415 11.7613 8.03815C11.7613 8.35815 11.7874 8.66585 11.8516 8.95877C8.61325 8.79508 5.74781 7.18646 3.82287 4.736C3.48681 5.34031 3.28969 6.032 3.28969 6.77662C3.28969 8.17477 3.98438 9.41415 5.01988 10.1317C4.39406 10.1194 3.78013 9.93108 3.26 9.63446C3.26 9.64677 3.26 9.66277 3.26 9.67877C3.26 11.6406 4.61019 13.2702 6.38075 13.6455C6.06369 13.7354 5.71812 13.7785 5.3595 13.7785C5.11013 13.7785 4.85837 13.7637 4.62206 13.7095C5.12675 15.3083 6.55888 16.4837 8.26175 16.5218C6.9365 17.5963 5.25381 18.2437 3.43219 18.2437C3.11275 18.2437 2.80637 18.2289 2.5 18.1883C4.22544 19.3415 6.27031 20 8.4755 20C15.6432 20 19.562 13.8462 19.562 8.512C19.562 8.33354 19.5561 8.16123 19.5478 7.99015C20.3208 7.42154 20.9704 6.71138 21.5 5.89415Z" fill="white"/>
</svg>
