<svg width="25" height="24" viewBox="0 0 25 24" fill="none" xmlns="http://www.w3.org/2000/svg">
<path fill-rule="evenodd" clip-rule="evenodd" d="M18.535 6.3982C16.9907 4.85254 14.9368 4.00087 12.7486 4C8.23991 4 4.5704 7.66814 4.56859 12.1769C4.56799 13.6181 4.94465 15.025 5.66049 16.265L4.5 20.5025L8.83633 19.3654C10.0311 20.0168 11.3763 20.3602 12.7453 20.3607H12.7487C17.257 20.3607 20.9268 16.6921 20.9286 12.1834C20.9295 9.99838 20.0794 7.94386 18.535 6.3982ZM12.7487 18.9797H12.7459C11.5259 18.9792 10.3294 18.6515 9.28547 18.0323L9.03719 17.885L6.46395 18.5598L7.15079 16.0517L6.9891 15.7946C6.30853 14.7124 5.94908 13.4616 5.94962 12.1774C5.9511 8.42996 9.00108 5.3811 12.7513 5.3811C14.5673 5.3818 16.2743 6.08973 17.558 7.37441C18.8417 8.65909 19.5482 10.3668 19.5475 12.1829C19.546 15.9306 16.4961 18.9797 12.7487 18.9797Z" fill="white"/>
<path d="M12.7487 18.9797H12.7459C11.5259 18.9792 10.3294 18.6515 9.28547 18.0323L9.03719 17.885L6.46395 18.5598L7.15079 16.0517L6.9891 15.7946C6.30853 14.7124 5.94908 13.4616 5.94962 12.1774C5.9511 8.42996 9.00108 5.3811 12.7513 5.3811C14.5673 5.3818 16.2743 6.08973 17.558 7.37441C18.8417 8.65909 19.5482 10.3668 19.5475 12.1829C19.546 15.9306 16.4961 18.9797 12.7487 18.9797Z" fill="white"/>
<path fill-rule="evenodd" clip-rule="evenodd" d="M10.0047 16.1378C10.0623 16.1726 10.1806 16.1725 10.4518 16.1723C11.6029 16.1713 12.5971 16.1677 13.3043 16.1677C16.6048 16.1677 16.518 12.6932 14.9749 12.2597C15.2009 11.8593 16.2307 11.1071 15.5938 9.55232C14.964 8.0149 12.2555 8.36378 10.4032 8.36469C9.71778 8.36478 9.82026 8.87123 9.82378 9.65865C9.82941 10.9059 9.82479 14.2818 9.82396 15.7412C9.82378 16.037 9.91305 16.0825 10.0047 16.1378ZM11.4328 14.8645C11.7444 14.8645 12.4795 14.8645 13.1096 14.8635C13.8231 14.8624 14.4585 14.5287 14.4427 13.8183C14.431 13.1492 13.9858 12.9296 13.368 12.8683C12.7794 12.8739 12.1063 12.8739 11.4328 12.8739V14.8645H11.4328ZM11.4328 11.53C12.6742 11.513 13.1532 11.5801 13.831 11.4103C14.2967 11.1459 14.5001 10.1655 13.8336 9.8325C13.3705 9.60114 12.0021 9.6803 11.4328 9.70401V11.53V11.53Z" fill="#2A172D"/>
</svg>
