<svg width="25" height="24" viewBox="0 0 25 24" fill="none" xmlns="http://www.w3.org/2000/svg">
<path d="M21.6055 7.25273C21.0925 6.34036 20.5359 6.17255 19.4025 6.10873C18.2704 6.03191 15.4234 6 12.9569 6C10.4857 6 7.63755 6.03191 6.50655 6.10755C5.37555 6.17255 4.81773 6.33918 4.30009 7.25273C3.77182 8.16391 3.5 9.73336 3.5 12.4965C3.5 12.4988 3.5 12.5 3.5 12.5C3.5 12.5024 3.5 12.5035 3.5 12.5035V12.5059C3.5 15.2572 3.77182 16.8385 4.30009 17.7402C4.81773 18.6525 5.37436 18.818 6.50536 18.8948C7.63755 18.961 10.4857 19 12.9569 19C15.4234 19 18.2704 18.961 19.4037 18.896C20.5371 18.8192 21.0937 18.6537 21.6066 17.7414C22.1396 16.8396 22.4091 15.2584 22.4091 12.5071C22.4091 12.5071 22.4091 12.5035 22.4091 12.5012C22.4091 12.5012 22.4091 12.4988 22.4091 12.4976C22.4091 9.73336 22.1396 8.16391 21.6055 7.25273Z" fill="white"/>
<path d="M10.5898 16.046V8.95508L16.4989 12.5005L10.5898 16.046Z" fill="#2A172D"/>
</svg>
